<svg xmlns="http://www.w3.org/2000/svg" viewBox="0 0 64 64" shape-rendering="crispEdges">
  <path d="M32 0 64 16 64 48 32 64 0 48 0 16Z" fill="#111827"/>
  <!-- left face -->
  <polygon points="32,0 24,4 24,12 32,8" fill="#FFE66D"/>
  <polygon points="24,4 16,8 16,16 24,12" fill="#80ED99"/>
  <polygon points="16,8 8,12 8,20 16,16" fill="#43AA8B"/>
  <polygon points="8,12 0,16 0,24 8,20" fill="#2D6A4F"/>
  <polygon points="32,8 24,12 24,20 32,16" fill="#FEE440"/>
  <polygon points="24,12 16,16 16,24 24,20" fill="#00F5D4"/>
  <polygon points="16,16 8,20 8,28 16,24" fill="#40916C"/>
  <polygon points="8,20 0,24 0,32 8,28" fill="#1B4332"/>
  <polygon points="32,16 24,20 24,28 32,24" fill="#90BE6D"/>
  <polygon points="24,20 16,24 16,32 24,28" fill="#4CC9F0"/>
  <polygon points="16,24 8,28 8,36 16,32" fill="#277DA1"/>
  <polygon points="8,28 0,32 0,40 8,36" fill="#1D3557"/>
  <polygon points="32,24 24,28 24,36 32,32" fill="#6BCB77"/>
  <polygon points="24,28 16,32 16,40 24,36" fill="#4895EF"/>
  <polygon points="16,32 8,36 8,44 16,40" fill="#3A86FF"/>
  <polygon points="8,36 0,40 0,48 8,44" fill="#22223B"/>
  <!-- right face -->
  <polygon points="32,0 40,4 40,12 32,8" fill="#FF9F1C"/>
  <polygon points="40,4 48,8 48,16 40,12" fill="#FF6B6B"/>
  <polygon points="48,8 56,12 56,20 48,16" fill="#F72585"/>
  <polygon points="56,12 64,16 64,24 56,20" fill="#7B2CBF"/>
  <polygon points="32,8 40,12 40,20 32,16" fill="#FF8C42"/>
  <polygon points="40,12 48,16 48,24 40,20" fill="#F15BB5"/>
  <polygon points="48,16 56,20 56,28 48,24" fill="#9B5DE5"/>
  <polygon points="56,20 64,24 64,32 56,28" fill="#5A189A"/>
  <polygon points="32,16 40,20 40,28 32,24" fill="#FF5D8F"/>
  <polygon points="40,20 48,24 48,32 40,28" fill="#C77DFF"/>
  <polygon points="48,24 56,28 56,36 48,32" fill="#7209B7"/>
  <polygon points="56,28 64,32 64,40 56,36" fill="#3A0CA3"/>
  <polygon points="32,24 40,28 40,36 32,32" fill="#E85D04"/>
  <polygon points="40,28 48,32 48,40 40,36" fill="#D00000"/>
  <polygon points="48,32 56,36 56,44 48,40" fill="#6A040F"/>
  <polygon points="56,36 64,40 64,48 56,44" fill="#240046"/>
  <!-- top face -->
  <polygon points="32,0 40,4 32,8 24,4" fill="#FFF3B0"/>
  <polygon points="40,4 48,8 40,12 32,8" fill="#FFE66D"/>
  <polygon points="48,8 56,12 48,16 40,12" fill="#FF9F1C"/>
  <polygon points="56,12 64,16 56,20 48,16" fill="#FF6B6B"/>
  <polygon points="24,4 32,8 24,12 16,8" fill="#80ED99"/>
  <polygon points="32,8 40,12 32,16 24,12" fill="#4CC9F0"/>
  <polygon points="40,12 48,16 40,20 32,16" fill="#4D96FF"/>
  <polygon points="48,16 56,20 48,24 40,20" fill="#F72585"/>
  <polygon points="16,8 24,12 16,16 8,12" fill="#00F5D4"/>
  <polygon points="24,12 32,16 24,20 16,16" fill="#4361EE"/>
  <polygon points="32,16 40,20 32,24 24,20" fill="#9B5DE5"/>
  <polygon points="40,20 48,24 40,28 32,24" fill="#C77DFF"/>
  <polygon points="8,12 16,16 8,20 0,16" fill="#90BE6D"/>
  <polygon points="16,16 24,20 16,24 8,20" fill="#7209B7"/>
  <polygon points="24,20 32,24 24,28 16,24" fill="#F15BB5"/>
  <polygon points="32,24 40,28 32,32 24,28" fill="#FEE440"/>
  <path d="M32 0 64 16 64 48 32 64 0 48 0 16Z" fill="none" stroke="#111827" stroke-width="2" stroke-linejoin="round"/>
</svg>
